Patient4_TMGait_0pt5_01_right_13_EMG.mot
version=1
nRows=26
nColumns=33
inDegrees=no
endheader
time	1LAddLong	2LGlutMax	3LGlutMed	4LIliopsoas	5LSemiMemb	6LBicFemLong	7LRecFem	8LVastMed	9LVastLat	10LGasMed	11LTibAnt	12lTibPost	13LPeroneusLong	14LSol	15LExtDigLong	16LFlexDigLong	17RAddLong	18RGlutMax	19RGlutMed	20RIliopsoas	21RSemiMemb	22RBicFemLong	23RRecFem	24RVastMed	25RVastLat	26RGasMed	27RTibAnt	28RTibPost	29RPeroneusLong	30RSol	31RExtDigLong	32RFlexDigLong
16.77	0.00946	0.040131	0.063324	-0.013428	0.013733	-0.031738	0.037384	0.007172	0.15549	-0.088348	0.002899	-0.075684	0.012207	-0.004425	0.027313	0.031586	0.039215	-0.046692	0.011902	-0.069427	0.005798	-0.00061	0.092773	-0.050659	-0.006561	-0.065613	-0.07782	-0.004578	-0.62164	0.090637	-0.007477	-0.033875
16.771	0.011444	0.021515	0.070801	-0.011292	-0.010071	-0.021057	0.13458	0.003967	0.015411	-0.036621	-0.005798	-0.057678	0.049591	0.45654	0.062866	0.17258	0.082245	-0.040131	0.19653	-0.000153	-0.009003	0.011749	0.103	-0.14114	-0.014954	-0.064087	0.019226	-0.005646	-0.2507	0.085754	-0.001221	-0.040741
16.772	0.015106	0.042419	0.14252	-0.010681	-0.023651	-0.026093	0.14297	-0.024109	-0.11658	0.018768	-0.000458	-0.039215	-0.003357	0.61096	0.036011	0.002441	0.061035	-0.10513	0.15106	0.037384	-0.000916	0.015869	0.1062	-0.10422	-0.016022	-0.04837	0.12817	-0.00946	-0.14236	0.028381	-0.001068	-0.026398
16.773	0.006104	0.007172	0.033569	0.001831	0.021973	0.008087	0.14145	-0.002136	-0.021057	0.26779	0.007782	-0.011749	-0.000153	0.54367	0.021973	-0.05249	0.024261	-0.040894	-0.1622	0.28702	-0.002441	0.019226	0.10284	-0.085297	-0.00885	-0.020599	0.16785	-0.00412	0.098877	0.00473	-0.001984	-0.031891
16.774	0.007019	0.014801	-0.003662	0.010986	0.060577	0.01236	0.1831	-0.013123	-0.1207	0.39734	0.00946	0.00824	0.072937	0.12482	-0.000763	-0.11063	-0.01358	-0.058746	-0.31418	0.39948	-0.002899	0.009766	0.071411	-0.063934	-0.00885	0.015259	-0.008545	-0.002136	0.031586	-0.039063	-0.002747	-0.027008
16.775	0.001984	0.041046	-0.001984	-0.012665	0.02594	0.04837	0.23254	-0.019379	-0.093536	0.50858	-0.00061	0.028229	0.14252	-0.16998	0.01297	0.005798	-0.031433	-0.0914	-0.13916	0.14145	-0.012054	0.028839	0.065765	-0.088348	0.00824	0.057526	-0.023499	-0.003204	0.04837	-0.033112	-0.005341	-0.023041
16.776	0.000153	0.039368	-0.023956	0.003204	0	0.063171	0.1886	0.003967	-0.075073	0.58014	-0.001831	0.042725	0.11734	-0.29587	0.0383	0.19058	-0.04715	-0.085907	0.023346	-0.001221	-0.048828	0.024567	0.094452	-0.052948	0.014648	0.10757	0.098724	-0.005188	-0.28336	-0.036316	-0.00061	-0.03418
16.777	0.001831	0.049286	0.092163	0.011444	-0.010071	0.028992	0.20752	-0.005646	-0.11719	0.24567	-0.009613	0.060883	0.056915	-0.31067	0.053864	-0.026398	-0.050049	-0.099182	0.18326	-0.041962	-0.03418	0.019836	0.068054	-0.034943	0.012054	0.14465	0.036011	-0.001984	0.094299	-0.01297	-0.002289	-0.029297
16.778	0.000305	0.06424	0.081482	0.009003	-0.018616	0.046692	0.16922	-0.002289	-0.065918	-0.25925	-0.003357	0.036011	0.10529	-0.21393	0.043793	-0.062256	-0.041809	-0.1004	-0.024872	-0.10773	-0.029755	0.001678	0.036163	-0.010071	0.011749	0.18478	-0.072784	-0.005951	0.22614	0.00946	-0.005798	-0.034943
16.779	0.000916	0.11704	0.016937	-0.004425	-0.028992	0.009003	0.20432	0.002899	-0.068665	-0.2536	-0.009613	-0.037384	0.090332	0.059052	0.003967	-0.014496	-0.037689	-0.10376	-0.13962	-0.096283	-0.007172	-0.007782	0.094299	-0.007019	0.02243	0.21118	-0.065765	-0.002289	0.21011	-0.001068	0.000153	-0.032959
16.78	-0.001373	0.037079	0.024719	-0.007477	-0.034637	-0.050659	0.19501	0.005188	-0.10712	-0.093689	0.005188	-0.00061	0.16327	0.32684	-0.011292	-0.031586	-0.019226	-0.088806	0.029755	-0.039368	-0.023346	-0.007629	0.065918	0.005493	-0.003052	0.21973	-0.030975	-0.007629	0.26566	0.000458	-0.002136	-0.032501
16.781	-0.002136	0.037384	0.018311	0.014954	-0.022583	-0.003967	0.16113	-0.002441	-0.050507	-0.063171	-0.004425	0.020752	0.19501	0.48553	-0.004425	-0.016937	0.01297	-0.10666	-0.11215	0.074463	0.003052	-0.040588	0.060425	-0.017853	0.012512	0.21637	0.017548	-0.001526	0.24231	0.001068	-0.000763	-0.018768
16.782	0.006866	0.02655	0.052948	0.011749	0.02121	-0.059967	0.10193	-0.002747	-0.027618	-0.082397	-0.00351	0.026398	0.17838	0.34103	0.001678	-0.15976	0.03006	-0.047302	0.045929	0.099182	0.017395	-0.051727	0.072632	-0.011444	0.010986	0.20432	0.052032	-0.007019	0.019836	-0.035553	-0.004578	-0.022888
16.783	-0.003052	0.047913	0.10513	-0.000305	0.046539	0.009766	0.1265	-0.001068	-0.007477	-0.062561	0.006256	0.010376	-0.057983	0.026398	0.001068	0.1915	0.002899	-0.014343	-0.048676	0.048676	0.019684	-0.032196	0.082703	-0.012512	0.021362	0.1886	0.033875	-0.000916	-0.078125	-0.045471	-0.005646	-0.02533
16.784	0.012817	0.027771	0.066223	0.001373	0.050659	-0.14389	0.11749	-0.001831	0.014954	-0.03067	0.015869	0.018463	-0.10666	-0.12268	0.004272	0.08316	-0.008392	-0.065613	0.10468	-0.041046	-0.02182	-0.020142	0.081787	-0.051575	0.020447	0.13901	0.054321	-0.003204	-0.12177	-0.042725	-0.002747	-0.023041
16.785	0.005951	0.034637	0.090637	0.011902	0.022583	-0.001678	0.12711	-0.016327	0.058441	-0.003204	0.009766	0.018921	0.13901	-0.042114	0.00351	-0.26977	0.003204	-0.084534	0.25589	-0.014038	-0.024567	-0.053711	0.075073	-0.060425	-0.00885	0.10391	0.048065	-0.002594	-0.11444	-0.033722	-0.005341	-0.021362
16.786	-0.000763	0.045319	0.089111	0.010834	-0.003357	0.14999	0.12405	-0.012054	0.050812	-0.033264	0.001068	0.024261	0.25589	0.00061	0.037842	-0.077057	0.039825	-0.065765	-0.23468	0.074615	-0.090027	-0.037537	0.076141	-0.072021	-0.001068	0.070801	0.041809	-0.002594	-0.05722	-0.007324	-0.004425	-0.019379
16.787	0.00412	0.036469	-0.026093	0.0177	0.017242	0.040894	0.092316	-0.001068	0.02655	-0.039978	0.001526	0.023499	-0.010223	0.043488	0.032349	-0.067291	0.029755	-0.056458	0.13886	0.054321	-0.13321	0.008698	0.07843	-0.086517	-0.00412	0.040894	0.030518	-0.00473	-0.040436	0.00946	-0.004578	-0.014191
16.788	-0.002594	0.007019	0.084381	0.000916	0.003357	-0.12894	0.12375	-0.01236	0.001221	-0.036011	0	0.019379	-0.31296	0.011597	0.026093	0.14435	0.001678	-0.038605	0.18265	0.031128	-0.097504	0.05188	0.020142	-0.018768	-0.003204	0.023499	0.019073	-0.001831	0.042419	-0.029907	-0.00061	-0.016479
16.789	-0.00061	0.008087	0.076904	-0.013885	-0.055847	-0.10666	0.15549	0.000305	-0.002136	-0.023804	-0.001221	0.014343	0.010223	0.055847	0.031281	0.15106	-0.01236	-0.048676	-0.29495	0.027466	0.053558	0.075378	0.031128	-0.021057	-0.018005	0.010834	0.028229	-0.002136	0.21225	-0.029297	-0.002289	-0.010986
16.79	0.010986	-0.02655	0.11276	0.00061	-0.159	0.06546	0.15533	-0.001221	-0.00473	-0.007172	0.002441	0.011902	-0.000153	0.049591	-0.007019	-0.029907	-0.014801	-0.098572	-0.45136	-0.049438	0.071259	0.044861	0.02121	-0.023499	-0.026245	-0.003662	0.01236	-0.003357	0.31265	0.013123	0.000458	-0.008087
16.791	0.005035	-0.048981	0.13397	0.017548	-0.15549	0.006409	0.1831	0.003815	-0.014191	0.004578	0.01236	0.013733	0.18372	0.073853	-0.030823	-0.039825	0.002747	-0.08728	-0.20065	-0.12894	0.07309	-0.044708	0.058136	-0.016022	-0.013275	-0.021057	0.009766	-0.008087	0.27512	0.004272	-0.000305	0
16.792	-0.000763	-0.054169	0.13153	0.002136	-0.063171	-0.003052	0.20554	-0.002594	-0.014954	0.00351	0.021667	0.013123	0.11353	0.04364	-0.076599	-0.014343	0.006409	-0.050354	-0.13382	-0.11337	0.10788	-0.084686	0.028381	-0.01297	-0.010071	-0.020752	0.028229	-0.007172	0.16556	-0.022278	-0.002899	0.003662
16.793	0.010986	-0.007019	0.14038	-0.020142	0.079041	0.052032	0.21622	-0.005493	-0.018005	-0.029907	0.022583	0.015411	0.015106	0.010986	-0.087891	0.000458	0.006866	-0.050659	0.1059	-0.039063	0.061493	-0.10391	0.053558	-0.054169	-0.008698	-0.027313	0.067749	-0.006409	0.082855	-0.005951	0.000153	-0.003967
16.794	0.018616	-0.025635	0.13672	-0.003052	0.081024	0.14008	0.23407	-0.009918	-0.032654	-0.045776	0.032654	0.010529	-0.037842	0.014496	-0.038757	0.008392	0.017548	-0.077667	0.18753	0.001068	0.001068	-0.10849	0.036011	-0.054474	-0.020752	-0.0354	0.094452	-0.00473	-0.003967	-0.00885	0.001984	0.006866
16.795	0.024872	-0.034637	0.017242	0.025024	0.005646	0.14572	0.23346	-0.000305	-0.035248	-0.071259	0.023499	0.009918	-0.51819	-0.015564	0.045319	0.008087	0.010529	-0.058899	0.06424	0.03952	0.002136	-0.096741	0.083923	-0.081024	-0.007782	-0.034637	0.13657	-0.009308	-0.007324	0.013123	-0.000153	0.00473
